<?xml version="1.0" encoding="UTF-8"?>
<svg id="b" data-name="Layer_2" xmlns="http://www.w3.org/2000/svg" viewBox="0 0 510.24 459.53">
  <defs>
    <style>
      .d {
        fill: #fff;
      }
    </style>
  </defs>
  <g id="c" data-name="Layer_1">
    <g>
      <path class="d" d="M508.34,20.37c-1.14-6.92-2.66-13.76-4.64-20.37l-15.2,13.91c1.67,7.07,2.74,14.29,3.19,21.67.23,3.27.38,6.61.38,9.96,0,4.86-.23,9.65-.76,14.37-.99,10.64-3.27,20.91-6.54,30.64-7.6,23.19-21.06,43.71-38.62,59.9-.61.56-191.02,174.98-191.03,174.99,0,0-190.5-174.5-191.03-174.99-17.56-16.19-31.02-36.72-38.62-59.9-3.27-9.73-5.55-19.99-6.54-30.64-.53-4.71-.76-9.5-.76-14.37,0-3.47.41-18.25,3.57-31.62L6.54,0c-1.98,6.61-3.5,13.46-4.64,20.37-1.25,7.6-1.9,24.11-1.9,25.16,0,7.83.53,15.58,1.67,23.19,1.52,10.95,4.26,21.51,7.91,31.7,8.13,22.35,21.06,42.49,37.55,58.99.71.71,52.36,48.03,52.38,48.04-13.68,23.79-21.51,52.45-21.51,85.6,0,106.05,79.51,166.48,177.12,166.48s177.12-60.43,177.12-166.48c0-33.14-7.83-61.8-21.51-85.6,0,0,51.76-47.43,52.38-48.04,16.5-16.5,29.42-36.64,37.55-58.99,3.65-10.19,6.39-20.75,7.91-31.7,1.14-7.6,1.67-15.36,1.67-23.19,0-1.27-.55-16.98-1.9-25.16ZM326.27,293.05c0,69.71-4.64,162.76-71.15,162.76s-71.15-93.05-71.15-162.76c0-2.66,0-5.4.08-8.13l71.08,65.15,71.08-65.15c.08,2.74.08,5.47.08,8.13Z"/>
      <g>
        <path class="d" d="M474.05,45.54c0,2.13-.08,4.26-.15,6.31v.08c-.53,9.81-2.13,19.31-4.79,28.35-5.93,20.53-16.95,38.85-31.62,53.52-.89.89-182.35,167.15-182.37,167.16,0,0-181.53-166.32-182.37-167.16-14.67-14.67-25.69-32.99-31.62-53.52-2.66-9.05-4.26-18.55-4.79-28.35v-.08c-.08-2.05-.15-4.18-.15-6.31,0-5.85.38-11.63,1.22-17.26l17.1,15.66c-.08.53-.08,1.06-.08,1.6,0,8.89,1.06,17.56,3.12,25.77,5.17,20.83,16.5,39.15,31.85,53.14,1.48,1.35,165.71,151.87,165.72,151.89,0,0,164.39-150.67,165.72-151.89,15.36-13.99,26.68-32.31,31.85-53.14,2.05-8.21,3.12-16.88,3.12-25.77,0-.53,0-1.06-.08-1.6l17.1-15.66c.84,5.63,1.22,11.4,1.22,17.26Z"/>
        <path class="d" d="M344.21,146.18c-26.15-12.85-56.63-19.54-89.09-19.54s-62.94,6.69-89.09,19.54c0,0-92.51-84.84-92.51-84.84,3.42,19.46,13.3,36.79,27.29,49.64,1.33,1.23,154.3,141.3,154.32,141.32,0,0,153.06-140.16,154.32-141.32,13.99-12.85,23.87-30.18,27.29-49.64,0,0-92.48,84.8-92.51,84.84ZM305.52,181.61l-15.13,13.84-35.27,32.31-35.27-32.31-15.13-13.84-6.69-6.16c10.03-26.68,27.44-45.15,57.09-45.15s47.05,18.47,57.09,45.15l-6.69,6.16Z"/>
      </g>
    </g>
  </g>
</svg>