<?xml version="1.0" encoding="UTF-8"?>
<svg id="b" data-name="Layer_2" xmlns="http://www.w3.org/2000/svg" viewBox="0 0 510.24 228.25">
  <defs>
    <style>
      .d {
        fill: #fff;
      }
    </style>
  </defs>
  <g id="c" data-name="Layer_1">
    <g>
      <g>
        <path class="d" d="M9.51,222.69H0v-16.52h9.51v2.87H3.5v3.63h5.59v2.87H3.5v4.26h6.01v2.89Z"/>
        <path class="d" d="M24,222.69h-3.45v-7.38c0-.91-.15-1.6-.46-2.05-.31-.46-.79-.68-1.44-.68-.88,0-1.52.32-1.92.97-.4.65-.6,1.71-.6,3.2v5.94h-3.45v-12.63h2.63l.46,1.62h.19c.34-.58.83-1.03,1.47-1.36s1.37-.49,2.2-.49c1.89,0,3.17.62,3.84,1.85h.31c.34-.59.84-1.04,1.5-1.37.66-.32,1.4-.49,2.23-.49,1.43,0,2.51.37,3.25,1.1s1.1,1.91,1.1,3.53v8.24h-3.46v-7.38c0-.91-.15-1.6-.46-2.05-.31-.46-.79-.68-1.44-.68-.84,0-1.47.3-1.89.9-.42.6-.63,1.56-.63,2.87v6.34Z"/>
        <path class="d" d="M42.35,222.92c-1.48,0-2.65-.54-3.49-1.62h-.18c.12,1.05.18,1.66.18,1.83v5.12h-3.45v-18.19h2.8l.49,1.64h.16c.81-1.25,2-1.88,3.58-1.88,1.49,0,2.66.58,3.5,1.73s1.27,2.75,1.27,4.8c0,1.35-.2,2.52-.59,3.51-.4.99-.96,1.75-1.69,2.27s-1.59.78-2.58.78ZM41.33,212.58c-.85,0-1.47.26-1.86.79-.39.52-.6,1.39-.61,2.59v.37c0,1.36.2,2.33.6,2.92s1.04.88,1.92.88c1.54,0,2.32-1.27,2.32-3.82,0-1.24-.19-2.18-.57-2.8-.38-.62-.98-.93-1.79-.93Z"/>
        <path class="d" d="M61.54,216.35c0,2.06-.54,3.66-1.63,4.82s-2.6,1.74-4.53,1.74c-1.21,0-2.28-.27-3.21-.8-.93-.53-1.64-1.29-2.14-2.29-.5-.99-.75-2.15-.75-3.48,0-2.06.54-3.67,1.62-4.81,1.08-1.14,2.59-1.72,4.54-1.72,1.21,0,2.28.26,3.21.79s1.64,1.28,2.14,2.27c.5.99.75,2.14.75,3.47ZM52.8,216.35c0,1.25.21,2.2.62,2.84.41.64,1.08.96,2.01.96s1.58-.32,1.98-.96c.4-.64.6-1.58.6-2.84s-.2-2.19-.61-2.81c-.41-.63-1.07-.94-2-.94s-1.58.31-1.99.93c-.41.62-.61,1.56-.61,2.82Z"/>
        <path class="d" d="M74.77,222.69l-.97-4.42-1.31-5.58h-.08l-2.31,10h-3.71l-3.59-12.63h3.44l1.46,5.59c.23,1,.47,2.38.71,4.15h.07c.03-.57.16-1.48.4-2.72l.18-.96,1.56-6.06h3.8l1.48,6.06c.03.17.08.41.14.73.06.32.13.67.19,1.03.06.36.11.72.16,1.07s.08.63.08.84h.07c.07-.54.19-1.29.36-2.23.17-.95.3-1.58.37-1.91l1.51-5.59h3.38l-3.64,12.63h-3.75Z"/>
        <path class="d" d="M89.91,222.92c-2.03,0-3.62-.56-4.77-1.68s-1.72-2.71-1.72-4.77.53-3.75,1.59-4.91,2.52-1.73,4.39-1.73,3.18.51,4.17,1.53c.99,1.02,1.49,2.42,1.49,4.21v1.67h-8.15c.04.98.33,1.74.87,2.29s1.3.82,2.28.82c.76,0,1.48-.08,2.16-.24.68-.16,1.39-.41,2.12-.76v2.67c-.6.3-1.25.53-1.93.67-.69.15-1.52.22-2.51.22ZM89.43,212.27c-.73,0-1.3.23-1.72.7-.41.46-.65,1.12-.71,1.97h4.84c-.02-.85-.24-1.51-.67-1.97-.43-.46-1.01-.7-1.74-.7Z"/>
        <path class="d" d="M104.92,209.82c.47,0,.85.03,1.16.1l-.26,3.23c-.28-.08-.62-.11-1.02-.11-1.1,0-1.96.28-2.57.85-.61.56-.92,1.36-.92,2.37v6.43h-3.45v-12.63h2.61l.51,2.12h.17c.39-.71.92-1.28,1.59-1.71s1.39-.65,2.18-.65Z"/>
        <path class="d" d="M119.71,220.17c.6,0,1.33-.13,2.17-.4v2.56c-.86.38-1.91.58-3.16.58-1.38,0-2.38-.35-3.01-1.05-.63-.7-.94-1.74-.94-3.14v-6.09h-1.65v-1.46l1.9-1.15.99-2.67h2.2v2.69h3.54v2.59h-3.54v6.09c0,.49.14.85.41,1.08s.64.35,1.09.35Z"/>
        <path class="d" d="M136.09,222.69h-3.45v-7.38c0-1.82-.68-2.73-2.03-2.73-.96,0-1.66.33-2.09.98s-.64,1.72-.64,3.19v5.94h-3.45v-17.58h3.45v3.58c0,.28-.03.93-.08,1.97l-.08,1.02h.18c.77-1.24,1.99-1.85,3.66-1.85,1.48,0,2.61.4,3.38,1.2s1.15,1.94,1.15,3.43v8.24Z"/>
        <path class="d" d="M145.36,222.92c-2.03,0-3.62-.56-4.77-1.68s-1.72-2.71-1.72-4.77.53-3.75,1.59-4.91,2.52-1.73,4.39-1.73,3.18.51,4.17,1.53c.99,1.02,1.49,2.42,1.49,4.21v1.67h-8.15c.04.98.33,1.74.87,2.29s1.3.82,2.28.82c.76,0,1.48-.08,2.16-.24.68-.16,1.39-.41,2.12-.76v2.67c-.6.3-1.25.53-1.93.67-.69.15-1.52.22-2.51.22ZM144.87,212.27c-.73,0-1.3.23-1.72.7-.41.46-.65,1.12-.71,1.97h4.84c-.02-.85-.24-1.51-.67-1.97-.43-.46-1.01-.7-1.74-.7Z"/>
        <path class="d" d="M158.31,228.25c-.88,0-1.64-.09-2.27-.28v-2.71c.53.14,1.07.22,1.62.22.58,0,1-.16,1.27-.49s.4-.8.4-1.44v-13.49h3.45v14c0,1.34-.39,2.37-1.16,3.1-.78.73-1.88,1.09-3.3,1.09ZM159.18,206.79c0-1.12.63-1.68,1.88-1.68s1.88.56,1.88,1.68c0,.54-.16.95-.47,1.25s-.78.45-1.41.45c-1.25,0-1.88-.56-1.88-1.69Z"/>
        <path class="d" d="M177.87,216.35c0,2.06-.54,3.66-1.63,4.82s-2.6,1.74-4.53,1.74c-1.21,0-2.28-.27-3.21-.8-.93-.53-1.64-1.29-2.14-2.29-.5-.99-.75-2.15-.75-3.48,0-2.06.54-3.67,1.62-4.81,1.08-1.14,2.59-1.72,4.54-1.72,1.21,0,2.28.26,3.21.79s1.64,1.28,2.14,2.27c.5.99.75,2.14.75,3.47ZM169.13,216.35c0,1.25.21,2.2.62,2.84.41.64,1.08.96,2.01.96s1.58-.32,1.98-.96c.4-.64.6-1.58.6-2.84s-.2-2.19-.61-2.81c-.41-.63-1.07-.94-2-.94s-1.58.31-1.99.93c-.41.62-.61,1.56-.61,2.82Z"/>
        <path class="d" d="M189.66,222.69l-.46-1.62h-.18c-.37.59-.89,1.04-1.57,1.36-.68.32-1.45.48-2.32.48-1.48,0-2.6-.4-3.36-1.19s-1.13-1.94-1.13-3.43v-8.24h3.45v7.38c0,.91.16,1.6.49,2.05s.84.68,1.55.68c.96,0,1.66-.32,2.09-.97s.64-1.71.64-3.2v-5.94h3.45v12.63h-2.64Z"/>
        <path class="d" d="M202.98,209.82c.47,0,.85.03,1.16.1l-.26,3.23c-.28-.08-.62-.11-1.02-.11-1.1,0-1.96.28-2.57.85-.61.56-.92,1.36-.92,2.37v6.43h-3.45v-12.63h2.61l.51,2.12h.17c.39-.71.92-1.28,1.59-1.71s1.39-.65,2.18-.65Z"/>
        <path class="d" d="M218.09,222.69h-3.45v-7.38c0-.91-.16-1.6-.49-2.05s-.84-.68-1.55-.68c-.96,0-1.66.32-2.09.97s-.64,1.71-.64,3.2v5.94h-3.45v-12.63h2.63l.46,1.62h.19c.38-.61.91-1.07,1.59-1.38.67-.31,1.44-.47,2.3-.47,1.47,0,2.58.4,3.34,1.19.76.79,1.14,1.94,1.14,3.44v8.24Z"/>
        <path class="d" d="M227.36,222.92c-2.03,0-3.62-.56-4.77-1.68s-1.72-2.71-1.72-4.77.53-3.75,1.59-4.91,2.52-1.73,4.39-1.73,3.18.51,4.17,1.53c.99,1.02,1.49,2.42,1.49,4.21v1.67h-8.15c.04.98.33,1.74.87,2.29s1.3.82,2.28.82c.76,0,1.48-.08,2.16-.24.68-.16,1.39-.41,2.12-.76v2.67c-.6.3-1.25.53-1.93.67-.69.15-1.52.22-2.51.22ZM226.87,212.27c-.73,0-1.3.23-1.72.7-.41.46-.65,1.12-.71,1.97h4.84c-.02-.85-.24-1.51-.67-1.97-.43-.46-1.01-.7-1.74-.7Z"/>
        <path class="d" d="M233.51,210.06h3.77l2.38,7.11c.2.62.34,1.35.42,2.19h.07c.08-.78.24-1.51.49-2.19l2.34-7.11h3.7l-5.34,14.25c-.49,1.32-1.19,2.3-2.1,2.96s-1.97.98-3.18.98c-.6,0-1.18-.06-1.75-.19v-2.74c.41.1.87.15,1.36.15.61,0,1.14-.19,1.6-.56s.81-.94,1.07-1.69l.2-.62-5.02-12.54Z"/>
        <path class="d" d="M247.99,221.07c0-.63.17-1.11.51-1.44.34-.32.83-.49,1.48-.49s1.11.17,1.45.5.51.81.51,1.42-.17,1.06-.52,1.41c-.35.34-.83.51-1.45.51s-1.12-.17-1.47-.5c-.35-.33-.52-.81-.52-1.42Z"/>
        <path class="d" d="M267.73,222.69h-3.5v-13.6h-4.49v-2.92h12.48v2.92h-4.49v13.6Z"/>
        <path class="d" d="M281.54,209.82c.47,0,.85.03,1.16.1l-.26,3.23c-.28-.08-.62-.11-1.02-.11-1.1,0-1.96.28-2.57.85-.61.56-.92,1.36-.92,2.37v6.43h-3.45v-12.63h2.61l.51,2.12h.17c.39-.71.92-1.28,1.59-1.71s1.39-.65,2.18-.65Z"/>
        <path class="d" d="M293.02,222.69l-.67-1.72h-.09c-.58.73-1.18,1.24-1.79,1.52-.61.28-1.41.42-2.4.42-1.21,0-2.17-.35-2.86-1.04-.7-.69-1.05-1.68-1.05-2.96s.47-2.33,1.41-2.97c.94-.64,2.35-.99,4.24-1.06l2.19-.07v-.55c0-1.28-.66-1.92-1.97-1.92-1.01,0-2.2.31-3.56.91l-1.14-2.33c1.45-.76,3.07-1.14,4.84-1.14s2.99.37,3.9,1.11c.9.74,1.36,1.86,1.36,3.37v8.42h-2.41ZM292.01,216.84l-1.33.05c-1,.03-1.75.21-2.24.54s-.73.84-.73,1.51c0,.97.56,1.46,1.67,1.46.8,0,1.44-.23,1.92-.69.48-.46.72-1.07.72-1.83v-1.04Z"/>
        <path class="d" d="M310.64,222.69h-3.45v-7.38c0-.91-.16-1.6-.49-2.05s-.84-.68-1.55-.68c-.96,0-1.66.32-2.09.97s-.64,1.71-.64,3.2v5.94h-3.45v-12.63h2.63l.46,1.62h.19c.38-.61.91-1.07,1.59-1.38.67-.31,1.44-.47,2.3-.47,1.47,0,2.58.4,3.34,1.19.76.79,1.14,1.94,1.14,3.44v8.24Z"/>
        <path class="d" d="M323,218.94c0,1.3-.45,2.28-1.35,2.96s-2.25,1.02-4.04,1.02c-.92,0-1.7-.06-2.35-.19-.65-.12-1.25-.31-1.82-.55v-2.85c.64.3,1.36.55,2.16.76.8.2,1.51.31,2.12.31,1.25,0,1.88-.36,1.88-1.08,0-.27-.08-.49-.25-.66-.17-.17-.45-.36-.86-.58-.41-.22-.95-.47-1.63-.75-.97-.41-1.69-.78-2.14-1.13-.46-.35-.79-.74-.99-1.19-.21-.45-.31-1-.31-1.66,0-1.12.44-1.99,1.31-2.6.87-.61,2.1-.92,3.7-.92s3,.33,4.44.99l-1.04,2.49c-.63-.27-1.22-.49-1.77-.67s-1.11-.26-1.68-.26c-1.02,0-1.53.27-1.53.82,0,.31.16.58.49.8s1.05.56,2.15,1.01c.99.4,1.71.77,2.17,1.12.46.35.8.75,1.02,1.2.22.45.33.99.33,1.62Z"/>
        <path class="d" d="M332.67,212.64h-2.98v10.05h-3.45v-10.05h-1.9v-1.66l1.9-.93v-.93c0-1.44.35-2.49,1.06-3.15.71-.66,1.84-.99,3.4-.99,1.19,0,2.25.18,3.17.53l-.88,2.53c-.69-.22-1.33-.33-1.92-.33-.49,0-.84.15-1.06.43-.22.29-.33.66-.33,1.11v.79h2.98v2.59Z"/>
        <path class="d" d="M346.13,216.35c0,2.06-.54,3.66-1.63,4.82s-2.6,1.74-4.53,1.74c-1.21,0-2.28-.27-3.21-.8-.93-.53-1.64-1.29-2.14-2.29-.5-.99-.75-2.15-.75-3.48,0-2.06.54-3.67,1.62-4.81,1.08-1.14,2.59-1.72,4.54-1.72,1.21,0,2.28.26,3.21.79s1.64,1.28,2.14,2.27c.5.99.75,2.14.75,3.47ZM337.4,216.35c0,1.25.21,2.2.62,2.84.41.64,1.08.96,2.01.96s1.58-.32,1.98-.96c.4-.64.6-1.58.6-2.84s-.2-2.19-.61-2.81c-.41-.63-1.07-.94-2-.94s-1.58.31-1.99.93c-.41.62-.61,1.56-.61,2.82Z"/>
        <path class="d" d="M356.03,209.82c.47,0,.85.03,1.16.1l-.26,3.23c-.28-.08-.62-.11-1.02-.11-1.1,0-1.96.28-2.57.85-.61.56-.92,1.36-.92,2.37v6.43h-3.45v-12.63h2.61l.51,2.12h.17c.39-.71.92-1.28,1.59-1.71s1.39-.65,2.18-.65Z"/>
        <path class="d" d="M370.8,222.69h-3.45v-7.38c0-.91-.15-1.6-.46-2.05-.31-.46-.79-.68-1.44-.68-.88,0-1.52.32-1.92.97-.4.65-.6,1.71-.6,3.2v5.94h-3.45v-12.63h2.63l.46,1.62h.19c.34-.58.83-1.03,1.47-1.36s1.37-.49,2.2-.49c1.89,0,3.17.62,3.84,1.85h.31c.34-.59.84-1.04,1.5-1.37.66-.32,1.4-.49,2.23-.49,1.43,0,2.51.37,3.25,1.1s1.1,1.91,1.1,3.53v8.24h-3.46v-7.38c0-.91-.15-1.6-.46-2.05-.31-.46-.79-.68-1.44-.68-.84,0-1.47.3-1.89.9-.42.6-.63,1.56-.63,2.87v6.34Z"/>
        <path class="d" d="M393.54,220.17c.6,0,1.33-.13,2.17-.4v2.56c-.86.38-1.91.58-3.16.58-1.38,0-2.38-.35-3.01-1.05-.63-.7-.94-1.74-.94-3.14v-6.09h-1.65v-1.46l1.9-1.15.99-2.67h2.2v2.69h3.54v2.59h-3.54v6.09c0,.49.14.85.41,1.08s.64.35,1.09.35Z"/>
        <path class="d" d="M409.93,222.69h-3.45v-7.38c0-1.82-.68-2.73-2.03-2.73-.96,0-1.66.33-2.09.98s-.64,1.72-.64,3.19v5.94h-3.45v-17.58h3.45v3.58c0,.28-.03.93-.08,1.97l-.08,1.02h.18c.77-1.24,1.99-1.85,3.66-1.85,1.48,0,2.61.4,3.38,1.2s1.15,1.94,1.15,3.43v8.24Z"/>
        <path class="d" d="M419.19,222.92c-2.03,0-3.62-.56-4.77-1.68s-1.72-2.71-1.72-4.77.53-3.75,1.59-4.91,2.52-1.73,4.39-1.73,3.18.51,4.17,1.53c.99,1.02,1.49,2.42,1.49,4.21v1.67h-8.15c.04.98.33,1.74.87,2.29s1.3.82,2.28.82c.76,0,1.48-.08,2.16-.24.68-.16,1.39-.41,2.12-.76v2.67c-.6.3-1.25.53-1.93.67-.69.15-1.52.22-2.51.22ZM418.71,212.27c-.73,0-1.3.23-1.72.7-.41.46-.65,1.12-.71,1.97h4.84c-.02-.85-.24-1.51-.67-1.97-.43-.46-1.01-.7-1.74-.7Z"/>
        <path class="d" d="M440.14,212.64h-2.98v10.05h-3.45v-10.05h-1.9v-1.66l1.9-.93v-.93c0-1.44.35-2.49,1.06-3.15.71-.66,1.84-.99,3.4-.99,1.19,0,2.25.18,3.17.53l-.88,2.53c-.69-.22-1.33-.33-1.92-.33-.49,0-.84.15-1.06.43-.22.29-.33.66-.33,1.11v.79h2.98v2.59Z"/>
        <path class="d" d="M451.07,222.69l-.46-1.62h-.18c-.37.59-.89,1.04-1.57,1.36-.68.32-1.45.48-2.32.48-1.48,0-2.6-.4-3.36-1.19s-1.13-1.94-1.13-3.43v-8.24h3.45v7.38c0,.91.16,1.6.49,2.05s.84.68,1.55.68c.96,0,1.66-.32,2.09-.97s.64-1.71.64-3.2v-5.94h3.45v12.63h-2.64Z"/>
        <path class="d" d="M462.65,220.17c.6,0,1.33-.13,2.17-.4v2.56c-.86.38-1.91.58-3.16.58-1.38,0-2.38-.35-3.01-1.05-.63-.7-.94-1.74-.94-3.14v-6.09h-1.65v-1.46l1.9-1.15.99-2.67h2.2v2.69h3.54v2.59h-3.54v6.09c0,.49.14.85.41,1.08s.64.35,1.09.35Z"/>
        <path class="d" d="M476.33,222.69l-.46-1.62h-.18c-.37.59-.89,1.04-1.57,1.36-.68.32-1.45.48-2.32.48-1.48,0-2.6-.4-3.36-1.19s-1.13-1.94-1.13-3.43v-8.24h3.45v7.38c0,.91.16,1.6.49,2.05s.84.68,1.55.68c.96,0,1.66-.32,2.09-.97s.64-1.71.64-3.2v-5.94h3.45v12.63h-2.64Z"/>
        <path class="d" d="M489.64,209.82c.47,0,.85.03,1.16.1l-.26,3.23c-.28-.08-.62-.11-1.02-.11-1.1,0-1.96.28-2.57.85-.61.56-.92,1.36-.92,2.37v6.43h-3.45v-12.63h2.61l.51,2.12h.17c.39-.71.92-1.28,1.59-1.71s1.39-.65,2.18-.65Z"/>
        <path class="d" d="M498.81,222.92c-2.03,0-3.62-.56-4.77-1.68s-1.72-2.71-1.72-4.77.53-3.75,1.59-4.91,2.52-1.73,4.39-1.73,3.18.51,4.17,1.53c.99,1.02,1.49,2.42,1.49,4.21v1.67h-8.15c.04.98.33,1.74.87,2.29s1.3.82,2.28.82c.76,0,1.48-.08,2.16-.24.68-.16,1.39-.41,2.12-.76v2.67c-.6.3-1.25.53-1.93.67-.69.15-1.52.22-2.51.22ZM498.33,212.27c-.73,0-1.3.23-1.72.7-.41.46-.65,1.12-.71,1.97h4.84c-.02-.85-.24-1.51-.67-1.97-.43-.46-1.01-.7-1.74-.7Z"/>
        <path class="d" d="M506.28,221.07c0-.63.17-1.11.51-1.44.34-.32.83-.49,1.48-.49s1.11.17,1.45.5.51.81.51,1.42-.17,1.06-.52,1.41c-.35.34-.83.51-1.45.51s-1.12-.17-1.47-.5c-.35-.33-.52-.81-.52-1.42Z"/>
      </g>
      <g>
        <g>
          <path class="d" d="M131.8,140.41c-2.91,0-5.2.93-6.87,2.79-1.67,1.86-2.5,4.41-2.5,7.64s.79,5.88,2.36,7.71c1.57,1.83,3.83,2.74,6.75,2.74,1.94,0,3.73-.25,5.36-.74v1.43c-1.53.54-3.45.81-5.74.81-3.26,0-5.82-1.05-7.69-3.16-1.87-2.1-2.81-5.04-2.81-8.81,0-2.36.45-4.43,1.34-6.23.89-1.8,2.18-3.18,3.85-4.16,1.68-.98,3.62-1.47,5.84-1.47s4.29.42,6.07,1.27l-.65,1.46c-1.69-.85-3.47-1.27-5.33-1.27Z"/>
          <path class="d" d="M169.68,150.84c0,3.68-.92,6.59-2.76,8.73s-4.38,3.21-7.61,3.21-5.76-1.07-7.59-3.21c-1.84-2.14-2.76-5.06-2.76-8.76s.93-6.59,2.78-8.71c1.85-2.12,4.39-3.18,7.6-3.18s5.77,1.06,7.59,3.19c1.83,2.13,2.74,5.04,2.74,8.73ZM150.72,150.84c0,3.32.74,5.88,2.22,7.7s3.6,2.72,6.37,2.72,4.92-.9,6.4-2.69c1.47-1.8,2.21-4.37,2.21-7.72s-.74-5.9-2.21-7.68c-1.47-1.78-3.6-2.67-6.37-2.67s-4.89.9-6.38,2.7c-1.5,1.8-2.24,4.35-2.24,7.66Z"/>
          <path class="d" d="M199.98,162.46h-1.63l-13.73-20.58h-.13c.13,2.45.19,4.3.19,5.55v15.03h-1.55v-23.18h1.62l13.71,20.55h.1c-.1-1.9-.14-3.71-.14-5.42v-15.13h1.57v23.18Z"/>
          <path class="d" d="M227.45,156.48c0,1.93-.71,3.47-2.13,4.6s-3.31,1.7-5.67,1.7c-2.83,0-5-.31-6.52-.93v-1.62c1.67.71,3.8,1.06,6.39,1.06,1.9,0,3.41-.44,4.53-1.31s1.67-2.02,1.67-3.43c0-.88-.19-1.6-.55-2.18-.37-.58-.97-1.1-1.81-1.58-.84-.48-2.06-.99-3.68-1.54-2.37-.81-4-1.69-4.91-2.64-.9-.95-1.36-2.21-1.36-3.78,0-1.73.68-3.15,2.04-4.24,1.36-1.09,3.11-1.64,5.24-1.64s4.22.41,6.14,1.24l-.59,1.4c-1.92-.8-3.76-1.21-5.52-1.21s-3.08.4-4.09,1.19c-1.01.79-1.52,1.87-1.52,3.23,0,.86.16,1.56.47,2.11.31.55.82,1.04,1.53,1.48.71.44,1.92.97,3.65,1.58,1.81.62,3.17,1.23,4.07,1.82.91.59,1.57,1.25,1.99,2,.42.75.63,1.65.63,2.7Z"/>
          <path class="d" d="M257.51,139.28v15c0,2.66-.77,4.75-2.31,6.25-1.54,1.5-3.69,2.25-6.45,2.25s-4.78-.75-6.29-2.26-2.26-3.61-2.26-6.3v-14.93h1.63v15c0,2.23.62,3.97,1.85,5.21s2.99,1.86,5.25,1.86,3.92-.61,5.14-1.83c1.22-1.22,1.82-2.91,1.82-5.08v-15.16h1.62Z"/>
          <path class="d" d="M271.94,162.46v-23.18h1.62v21.66h11.05v1.52h-12.67Z"/>
          <path class="d" d="M302.76,162.46h-1.63v-21.66h-7.53v-1.52h16.69v1.52h-7.53v21.66Z"/>
          <path class="d" d="M321.85,162.46v-23.18h1.62v23.18h-1.62Z"/>
          <path class="d" d="M355,162.46h-1.63l-13.73-20.58h-.13c.13,2.45.19,4.3.19,5.55v15.03h-1.55v-23.18h1.62l13.71,20.55h.1c-.1-1.9-.14-3.71-.14-5.42v-15.13h1.57v23.18Z"/>
          <path class="d" d="M378.8,150.78h8.55v10.58c-2.24.95-4.76,1.43-7.56,1.43-3.66,0-6.46-1.03-8.41-3.1-1.95-2.07-2.93-4.99-2.93-8.78,0-2.36.48-4.45,1.45-6.27.97-1.82,2.35-3.23,4.15-4.23,1.8-.99,3.87-1.49,6.21-1.49,2.53,0,4.79.47,6.8,1.39l-.65,1.46c-2.01-.93-4.09-1.4-6.25-1.4-3.05,0-5.48.94-7.27,2.83-1.79,1.89-2.69,4.43-2.69,7.63,0,3.49.85,6.11,2.55,7.87,1.7,1.76,4.2,2.64,7.5,2.64,2.13,0,3.95-.3,5.44-.9v-8.15h-6.9v-1.52Z"/>
        </g>
        <g>
          <path class="d" d="M84.45,98.19l-7.53,2.14-1.63-29.5h.81c1.63,11.9,8.24,28.89,26.55,28.89,9.26,0,16.58-3.26,16.58-10.78,0-17.09-44.35-15.56-44.35-40.18,0-13.73,13.12-21.06,29.4-21.06,5.29,0,12.41,1.32,16.17,2.34l7.73-2.14,1.32,25.02h-.81c-1.63-11.49-8.03-24.41-24.41-24.41-8.14,0-13.73,3.87-13.73,10.48,0,15.56,44.35,13.12,44.35,38.45,0,14.34-15.05,23.09-32.25,23.09-7.22,0-14.34-1.32-18.21-2.34Z"/>
          <path class="d" d="M429.03,80.3l-25.93-53.82-23.5,47.72c-6,12.12-11.06,20.04-16.38,23.17-.52.31-1.18.22-1.67-.15-3.27-2.46-3.27-7.66-3.27-15.8v-34.59c0-12.31,0-17.5,10.18-17.5v-.81h-36.72c-10.48,0-30.82.6-30.82,17.7,0,13.94,15.77,17,27.87,17.51v.2c-19.94,0-24.93,6.5-29.7,16.68-6.72,14.24-9.46,17.5-14.34,16.98v.81c4.37,1.23,11.08,2.35,16.17,2.35,12.51,0,17.5-4.79,21.16-16.18,2.15-6.7,2.86-20.54,12.41-20.54h2.86v17.4c0,11.89-1.01,17.5-10.58,17.5v.81h59.86v-.81c-11.13,0-13.75-8.4-6.35-23.92h24.23l2.56,5.51c4.99,10.68,6.92,18.41-2.74,18.41v.81h41.51v-.81c-7.33,0-10.38-5.29-16.8-18.61ZM337.34,63.2h-2.86c-10.16,0-11.18-4.99-11.18-17,0-9.46,0-16.88,10.98-16.88h3.06v33.88ZM380.76,73.98l11.96-24.18,11.29,24.18h-23.25Z"/>
          <path class="d" d="M205.97,78.86h0c-6-13.94-10.88-20.04-21.16-20.04-3.48,0-8.54.64-13.41,2.83-.38.17-.72-.3-.44-.61l10.59-11.48c3.32-3.59,7.22-6.83,11.54-11.15,3.33-3.33,4.49-6.24,3.3-8.03h0c-.78-1.17-2.09-1.88-3.5-1.88h-11.54s0,.81,0,.81c4.88,0,6.71,2.78,6.71,5.62,0,6.04-2.86,9.23-7.23,13.91l-12.35,13.45c-.24.26-.67.09-.67-.26v-15.22c0-11.9.92-17.5,8.44-17.5v-.81h-39.57v.81c.31,0,.61,0,.9.01,9.27.31,9.27,5.55,9.27,17.48v34.58c0,11.9,0,17.5-10.17,17.5v.81h39.57v-.81c-7.53,0-8.44-5.6-8.44-17.5v-16.89c0-.15.1-.3.24-.37,1.11-.52,2.16-.75,3.12-.75,6.51,0,9.25,11.29,12.51,21.16,3.77,11.39,8.65,16.17,21.16,16.17,5.09,0,11.8-1.12,16.18-2.34v-.81c-4.88.51-7.12-1.12-15.06-18.72Z"/>
          <g>
            <path class="d" d="M308.64,4.46c-.25-1.51-.58-3.01-1.01-4.46l-3.33,3.04c.37,1.55.6,3.13.7,4.74.05.72.08,1.45.08,2.18,0,1.06-.05,2.11-.17,3.14-.22,2.33-.72,4.57-1.43,6.7-1.66,5.07-4.61,9.56-8.45,13.11-.13.12-41.79,38.28-41.8,38.29,0,0-41.68-38.18-41.8-38.29-3.84-3.54-6.79-8.03-8.45-13.11-.72-2.13-1.21-4.37-1.43-6.7-.12-1.03-.17-2.08-.17-3.14,0-.76.09-3.99.78-6.92l-3.33-3.04c-.43,1.45-.76,2.94-1.01,4.46-.27,1.66-.42,5.27-.42,5.51,0,1.71.12,3.41.37,5.07.33,2.39.93,4.71,1.73,6.94,1.78,4.89,4.61,9.3,8.22,12.91.15.15,11.46,10.51,11.46,10.51-2.99,5.21-4.71,11.48-4.71,18.73,0,23.2,17.4,36.42,38.75,36.42s38.75-13.22,38.75-36.42c0-7.25-1.71-13.52-4.71-18.73,0,0,11.32-10.38,11.46-10.51,3.61-3.61,6.44-8.02,8.22-12.91.8-2.23,1.4-4.54,1.73-6.94.25-1.66.37-3.36.37-5.07,0-.28-.12-3.72-.42-5.51ZM268.81,64.11c0,15.25-1.01,35.61-15.57,35.61s-15.57-20.36-15.57-35.61c0-.58,0-1.18.02-1.78l15.55,14.25,15.55-14.25c.02.6.02,1.2.02,1.78Z"/>
            <g>
              <path class="d" d="M301.14,9.96c0,.47-.02.93-.03,1.38v.02c-.12,2.15-.47,4.22-1.05,6.2-1.3,4.49-3.71,8.5-6.92,11.71-.19.19-39.9,36.57-39.9,36.57,0,0-39.71-36.39-39.9-36.57-3.21-3.21-5.62-7.22-6.92-11.71-.58-1.98-.93-4.06-1.05-6.2v-.02c-.02-.45-.03-.91-.03-1.38,0-1.28.08-2.54.27-3.78l3.74,3.43c-.02.12-.02.23-.02.35,0,1.95.23,3.84.68,5.64,1.13,4.56,3.61,8.57,6.97,11.63.32.3,36.25,33.23,36.26,33.23,0,0,35.97-32.96,36.26-33.23,3.36-3.06,5.84-7.07,6.97-11.63.45-1.8.68-3.69.68-5.64,0-.12,0-.23-.02-.35l3.74-3.43c.18,1.23.27,2.49.27,3.78Z"/>
              <path class="d" d="M272.73,31.98c-5.72-2.81-12.39-4.27-19.49-4.27s-13.77,1.46-19.49,4.27c0,0-20.24-18.56-20.24-18.56.75,4.26,2.91,8.05,5.97,10.86.29.27,33.76,30.92,33.76,30.92,0,0,33.49-30.66,33.76-30.92,3.06-2.81,5.22-6.6,5.97-10.86,0,0-20.23,18.55-20.24,18.56ZM264.27,39.73l-3.31,3.03-7.72,7.07-7.72-7.07-3.31-3.03-1.46-1.35c2.2-5.84,6-9.88,12.49-9.88s10.29,4.04,12.49,9.88l-1.46,1.35Z"/>
            </g>
          </g>
        </g>
      </g>
    </g>
  </g>
</svg>