<?xml version="1.0" encoding="UTF-8"?>
<svg id="b" data-name="Layer_2" xmlns="http://www.w3.org/2000/svg" viewBox="0 0 510.24 223.91">
  <defs>
    <style>
      .d {
        fill: #fff;
      }
    </style>
  </defs>
  <g id="c" data-name="Layer_1">
    <g>
      <g>
        <path class="d" d="M78.29,193.13c-4,0-7.15,1.28-9.44,3.84-2.3,2.56-3.45,6.06-3.45,10.51s1.08,8.08,3.25,10.6,5.26,3.77,9.29,3.77c2.68,0,5.13-.34,7.37-1.02v1.96c-2.11.74-4.74,1.11-7.9,1.11-4.48,0-8-1.45-10.58-4.34-2.57-2.89-3.86-6.94-3.86-12.13,0-3.24.61-6.1,1.84-8.57,1.23-2.47,2.99-4.38,5.3-5.72,2.3-1.34,4.98-2.02,8.04-2.02s5.9.58,8.35,1.74l-.89,2.01c-2.33-1.16-4.77-1.75-7.33-1.75Z"/>
        <path class="d" d="M130.39,207.48c0,5.06-1.27,9.06-3.79,12-2.53,2.94-6.02,4.42-10.47,4.42s-7.92-1.47-10.45-4.42c-2.53-2.94-3.79-6.96-3.79-12.05s1.28-9.07,3.83-11.98c2.55-2.92,6.04-4.37,10.46-4.37s7.93,1.46,10.45,4.39c2.52,2.93,3.77,6.93,3.77,12.01ZM104.3,207.48c0,4.57,1.02,8.09,3.05,10.59s4.96,3.74,8.77,3.74,6.77-1.24,8.8-3.71c2.03-2.47,3.04-6.01,3.04-10.62s-1.01-8.12-3.04-10.57-4.95-3.67-8.76-3.67-6.72,1.24-8.78,3.71-3.09,5.98-3.09,10.53Z"/>
        <path class="d" d="M172.06,223.47h-2.25l-18.89-28.31h-.17c.17,3.37.26,5.92.26,7.63v20.67h-2.14v-31.88h2.22l18.86,28.26h.13c-.13-2.62-.2-5.1-.2-7.46v-20.8h2.16v31.88Z"/>
        <path class="d" d="M209.86,215.25c0,2.66-.98,4.77-2.93,6.32-1.96,1.56-4.55,2.33-7.8,2.33-3.9,0-6.88-.43-8.96-1.29v-2.22c2.3.97,5.23,1.46,8.79,1.46,2.62,0,4.69-.6,6.23-1.8,1.53-1.2,2.3-2.77,2.3-4.72,0-1.21-.25-2.21-.76-3-.51-.79-1.34-1.52-2.49-2.17-1.15-.65-2.83-1.36-5.06-2.12-3.26-1.12-5.51-2.33-6.75-3.63-1.24-1.3-1.86-3.04-1.86-5.2,0-2.38.93-4.33,2.8-5.83s4.27-2.26,7.21-2.26,5.81.57,8.44,1.7l-.81,1.92c-2.65-1.11-5.18-1.66-7.59-1.66s-4.23.55-5.63,1.64c-1.4,1.09-2.09,2.57-2.09,4.45,0,1.18.21,2.14.64,2.9.43.76,1.13,1.44,2.1,2.04.97.6,2.65,1.33,5.02,2.17,2.49.86,4.35,1.69,5.6,2.5,1.25.81,2.16,1.72,2.74,2.75.57,1.03.86,2.26.86,3.72Z"/>
        <path class="d" d="M251.21,191.59v20.63c0,3.66-1.06,6.53-3.18,8.59-2.12,2.07-5.08,3.1-8.88,3.1s-6.58-1.04-8.65-3.11c-2.07-2.07-3.11-4.96-3.11-8.67v-20.54h2.25v20.63c0,3.07.85,5.46,2.55,7.16s4.11,2.56,7.22,2.56,5.39-.84,7.07-2.52c1.67-1.68,2.51-4.01,2.51-6.99v-20.85h2.22Z"/>
        <path class="d" d="M271.05,223.47v-31.88h2.22v29.79h15.2v2.09h-17.43Z"/>
        <path class="d" d="M313.45,223.47h-2.25v-29.79h-10.36v-2.09h22.96v2.09h-10.36v29.79Z"/>
        <path class="d" d="M339.71,223.47v-31.88h2.22v31.88h-2.22Z"/>
        <path class="d" d="M385.31,223.47h-2.25l-18.89-28.31h-.17c.17,3.37.26,5.92.26,7.63v20.67h-2.14v-31.88h2.22l18.86,28.26h.13c-.13-2.62-.2-5.1-.2-7.46v-20.8h2.16v31.88Z"/>
        <path class="d" d="M418.04,207.4h11.75v14.55c-3.08,1.31-6.55,1.96-10.4,1.96-5.03,0-8.89-1.42-11.57-4.26-2.68-2.84-4.02-6.87-4.02-12.07,0-3.24.67-6.12,2-8.62,1.33-2.51,3.23-4.45,5.71-5.81,2.48-1.37,5.32-2.05,8.54-2.05,3.48,0,6.59.64,9.36,1.92l-.89,2.01c-2.76-1.28-5.63-1.92-8.59-1.92-4.2,0-7.53,1.3-10,3.89-2.46,2.59-3.7,6.1-3.7,10.5,0,4.8,1.17,8.41,3.51,10.83,2.34,2.42,5.78,3.63,10.32,3.63,2.94,0,5.43-.42,7.48-1.24v-11.21h-9.49v-2.09Z"/>
      </g>
      <g>
        <path class="d" d="M13.15,135.07l-10.35,2.94L.56,97.43h1.12c2.24,16.38,11.34,39.74,36.52,39.74,12.73,0,22.81-4.48,22.81-14.83C61.01,98.83,0,100.93,0,67.07c0-18.89,18.05-28.96,40.44-28.96,7.28,0,17.07,1.82,22.25,3.22l10.64-2.94,1.82,34.42h-1.12c-2.24-15.81-11.05-33.58-33.58-33.58-11.19,0-18.89,5.32-18.89,14.42,0,21.4,61,18.05,61,52.89,0,19.73-20.71,31.76-44.36,31.76-9.93,0-19.73-1.82-25.05-3.22Z"/>
        <path class="d" d="M487.13,110.45l-35.67-74.03-32.33,65.64c-8.25,16.68-15.21,27.56-22.53,31.87-.72.42-1.63.3-2.29-.2-4.5-3.38-4.5-10.53-4.5-21.74v-47.59c0-16.93,0-24.07,14-24.07v-1.12h-50.51c-14.41,0-42.39.82-42.39,24.34,0,19.17,21.69,23.38,38.34,24.09v.27c-27.43,0-34.29,8.95-40.86,22.95-9.24,19.58-13.02,24.07-19.72,23.36v1.12c6.02,1.69,15.24,3.23,22.24,3.23,17.2,0,24.07-6.59,29.1-22.26,2.95-9.22,3.93-28.25,17.07-28.25h3.93v23.93c0,16.36-1.4,24.07-14.55,24.07v1.12h82.34v-1.12c-15.31,0-18.92-11.55-8.74-32.9h33.33l3.52,7.57c6.86,14.69,9.52,25.33-3.77,25.33v1.12h57.1v-1.12c-10.09,0-14.28-7.28-23.11-25.6ZM361.01,86.93h-3.93c-13.98,0-15.37-6.86-15.37-23.38,0-13.02,0-23.22,15.1-23.22h4.21v46.6ZM420.74,101.76l16.45-33.26,15.53,33.26h-31.98Z"/>
        <path class="d" d="M180.3,108.48h0c-8.26-19.17-14.97-27.56-29.1-27.56-4.79,0-11.75.89-18.44,3.89-.53.24-1-.41-.6-.84l14.57-15.79c4.56-4.94,9.94-9.4,15.87-15.33,4.58-4.58,6.17-8.59,4.54-11.05h0c-1.07-1.62-2.88-2.59-4.82-2.59h-15.87s0,1.12,0,1.12c6.72,0,9.23,3.83,9.23,7.73,0,8.3-3.93,12.7-9.95,19.14l-16.98,18.51c-.33.36-.93.13-.93-.36v-20.94c0-16.37,1.26-24.07,11.61-24.07v-1.12h-54.43v1.12c.43,0,.84,0,1.24.02,12.75.42,12.75,7.63,12.75,24.05v47.57c0,16.37,0,24.07-13.99,24.07v1.12h54.43v-1.12c-10.35,0-11.61-7.7-11.61-24.07v-23.23c0-.21.13-.42.32-.5,1.53-.71,2.96-1.03,4.3-1.03,8.96,0,12.73,15.53,17.21,29.1,5.18,15.67,11.9,22.25,29.1,22.25,7,0,16.23-1.54,22.25-3.22v-1.12c-6.72.7-9.8-1.54-20.71-25.75Z"/>
        <g>
          <path class="d" d="M321.54,6.13c-.34-2.08-.8-4.14-1.4-6.13l-4.58,4.19c.5,2.13.82,4.3.96,6.52.07.98.11,1.99.11,3,0,1.46-.07,2.91-.23,4.32-.3,3.2-.98,6.29-1.97,9.22-2.29,6.98-6.34,13.15-11.62,18.03-.18.17-57.49,52.66-57.49,52.66,0,0-57.33-52.52-57.49-52.66-5.28-4.87-9.33-11.05-11.62-18.03-.98-2.93-1.67-6.02-1.97-9.22-.16-1.42-.23-2.86-.23-4.32,0-1.04.12-5.49,1.08-9.52l-4.58-4.19c-.59,1.99-1.05,4.05-1.4,6.13-.38,2.29-.57,7.26-.57,7.57,0,2.36.16,4.69.5,6.98.46,3.29,1.28,6.47,2.38,9.54,2.45,6.73,6.34,12.79,11.3,17.75.21.21,15.76,14.45,15.76,14.46-4.12,7.16-6.47,15.79-6.47,25.76,0,31.91,23.93,50.1,53.3,50.1s53.3-18.19,53.3-50.1c0-9.97-2.36-18.6-6.47-25.76,0,0,15.58-14.27,15.76-14.46,4.96-4.96,8.85-11.03,11.3-17.75,1.1-3.07,1.92-6.25,2.38-9.54.34-2.29.5-4.62.5-6.98,0-.38-.17-5.11-.57-7.57ZM266.75,88.19c0,20.98-1.4,48.98-21.41,48.98s-21.41-28-21.41-48.98c0-.8,0-1.62.02-2.45l21.39,19.61,21.39-19.61c.02.82.02,1.65.02,2.45Z"/>
          <g>
            <path class="d" d="M311.22,13.7c0,.64-.02,1.28-.05,1.9v.02c-.16,2.95-.64,5.81-1.44,8.53-1.78,6.18-5.1,11.69-9.52,16.11-.27.27-54.88,50.3-54.88,50.31,0,0-54.63-50.05-54.88-50.31-4.42-4.42-7.73-9.93-9.52-16.11-.8-2.72-1.28-5.58-1.44-8.53v-.02c-.02-.62-.05-1.26-.05-1.9,0-1.76.11-3.5.37-5.19l5.15,4.71c-.02.16-.02.32-.02.48,0,2.68.32,5.28.94,7.76,1.56,6.27,4.96,11.78,9.59,15.99.45.41,49.87,45.71,49.87,45.71,0,0,49.47-45.34,49.87-45.71,4.62-4.21,8.03-9.72,9.59-15.99.62-2.47.94-5.08.94-7.76,0-.16,0-.32-.02-.48l5.15-4.71c.25,1.69.37,3.43.37,5.19Z"/>
            <path class="d" d="M272.14,43.99c-7.87-3.87-17.04-5.88-26.81-5.88s-18.94,2.01-26.81,5.88c0,0-27.84-25.53-27.84-25.53,1.03,5.86,4,11.07,8.21,14.94.4.37,46.44,42.53,46.44,42.53,0,0,46.06-42.18,46.44-42.53,4.21-3.87,7.18-9.08,8.21-14.94,0,0-27.83,25.52-27.84,25.53ZM260.5,54.65l-4.55,4.16-10.62,9.72-10.62-9.72-4.55-4.16-2.01-1.85c3.02-8.03,8.26-13.59,17.18-13.59s14.16,5.56,17.18,13.59l-2.01,1.85Z"/>
          </g>
        </g>
      </g>
    </g>
  </g>
</svg>